<svg enable-background="new 0 0 350 90" viewBox="0 0 350 90" xmlns="http://www.w3.org/2000/svg"><path d="m23.1 60.4c-1.4-2.1-3.6-2.1-4.9 0l-16.6 25.6c-1.4 2.1-.4 3.8 2.1 3.8h33.8c2.5 0 3.4-1.7 2.1-3.8zm70.6-25.9c-10.2-15-20.8-18.7-29.9-18.5-17.6.3-27.6 16.5-27.6 16.5l-10.4 16c-1.4 2.1-1.4 5.5.1 7.6l8.1 11.5c1.4 2.1 3.7 2 5.1-.1l10.3-15.9c1.4-2.1 3.6-2.1 5 0l22.2 34.4c1.4 2.1 4.5 3.8 7 3.8h41.1c2.5 0 3.4-1.7 2.1-3.8 0 0-33-51.3-33.1-51.5zm45.9 6.5c-3.6 0-6.3.9-7.5 1.6-.6.4-.7 1-.3 1.6l.3.5c.4.6.9.7 1.6.4 1.1-.7 3.1-1.4 5.7-1.4 3.3 0 5.8 1.3 5.8 5.9v.7h-1.4c-4.5 0-14.3.4-14.3 8.1 0 4.5 4 6.9 7.9 6.9 5.8 0 8 0 7.9 0l1.4-.1c.7 0 1.6-.9 1.6-1.6v-14c0-5.9-3.1-8.6-8.7-8.6zm5.5 18.1c0 2.6 0 3.3-1.8 3.5-1.1.1-3.6 0-5.3 0-3.5 0-5.2-2.3-5.2-4.5 0-5.3 7.4-5.4 11.1-5.4h1.3v6.4zm23.1-17.5c-3.7 0-6.4 3-7.6 6.4h-.1s.2-.8.2-1.9v-3.2c0-.7-.4-1.2-1.1-1.2h-.8c-.7 0-1.2.4-1.2 1.2v21.2c0 .8.4 1.2 1.2 1.2h.9c.7 0 1.1-.4 1.1-1.2v-8.8c0-4.9 2.4-10.6 7.3-10.6.8 0 1.3-.4 1.3-1.2v-.8c0-.8-.3-1.1-1.2-1.1zm25.7 19.2c-.4-.7-.9-.7-1.5-.3-1.1.9-3.4 2.5-6.6 2.5-5.2 0-9.2-3.9-9.2-9.5s4-9.5 9.2-9.5c2.8 0 4.9 1.4 5.9 2.2.7.4 1.2.4 1.6-.2l.3-.5c.5-.6.4-1.2-.1-1.6-1.2-.9-3.8-2.7-7.8-2.7-7 0-12.3 5.1-12.3 12.4s5.3 12.3 12.3 12.3c4.3 0 7.1-2 8.4-3 .5-.5.7-1 .3-1.6zm27.1-19.1h-.9c-.7 0-1.2.4-1.2 1.2v13c0 3.7-1.5 7-6 7-.4 0-1.7 0-2 0-4.5 0-6-3.3-6-7v-13c0-.7-.4-1.2-1.2-1.2h-.9c-.7 0-1.1.4-1.1 1.2v13.8c0 6.1 3.9 9.1 9.5 9.1h1.4c5.6 0 9.5-3 9.5-9.1v-13.8c0-.8-.3-1.2-1.1-1.2zm12.6 5.9c0-2.6 2.2-3.7 4.6-3.7 2.5 0 4.2.9 5 1.5.7.4 1.2.3 1.6-.3l.3-.5c.4-.6.3-1.2-.3-1.5-1-.7-3.1-1.9-6.4-1.9-4.3 0-8 2.3-8 6.6 0 7.8 12.6 6.2 12.6 11.5 0 2.5-2.1 3.8-4.8 3.8-3 0-5.2-1.4-6.2-2.2-.7-.4-1.2-.4-1.6.2l-.4.5c-.4.6-.4 1.2.2 1.6 1.2 1 3.8 2.7 7.9 2.7 4.7 0 7.9-2.8 7.9-6.7.1-7.9-12.4-6.2-12.4-11.6zm30.5 15c-1.8-.1-5.1-.8-5.1-6.2v-11.8h4.8c.7 0 1.2-.4 1.2-1.1v-.4c0-.8-.4-1.2-1.2-1.2h-4.8v-5.5c0-.7-.4-1.2-1.1-1.2h-.9c-.7 0-1.2.4-1.2 1.2v5.5h-2c-.7 0-1.1.4-1.1 1.2v.4c0 .8.4 1.1 1.1 1.1h2v12.2c0 5.5 3.1 8.7 8.3 8.7.9 0 1.3-.4 1.3-1.1v-.6c0-.9-.4-1.1-1.3-1.2zm17.9-21.5c-6.4 0-11.6 4.6-11.6 12.4 0 7.3 5.3 12.3 12.3 12.3 3.8 0 6.6-1.7 7.8-2.6.6-.4.7-1 .3-1.5l-.4-.6c-.4-.6-.9-.7-1.5-.3-1.1.8-3.2 2.2-6.2 2.2-4.9 0-9-3.4-9.1-9.4h16.9c.7 0 1.2-.5 1.2-1.2.1-6.7-3.5-11.3-9.7-11.3zm-8.2 10.1c.7-4.8 4.2-7.4 8.1-7.4 3.5 0 6.5 2.4 6.7 7.4zm44.9 9.6c-.4-.7-.9-.7-1.5-.3-1.1.9-3.4 2.5-6.6 2.5-5.2 0-9.2-3.9-9.2-9.5s4-9.5 9.2-9.5c2.8 0 4.9 1.4 5.9 2.2.7.4 1.2.4 1.6-.2l.3-.5c.5-.6.4-1.2-.1-1.6-1.2-.9-3.8-2.7-7.8-2.7-7 0-12.3 5.1-12.3 12.4s5.3 12.3 12.3 12.3c4.3 0 7.1-2 8.4-3 .5-.5.7-1 .3-1.6zm20.7-19.7c-5.3 0-8.5 3.8-9.4 6.1h-.1s.2-.8.2-1.9v-11.8c0-.8-.4-1.2-1.2-1.2h-.9c-.7 0-1.1.4-1.1 1.2v30.6c0 .8.4 1.2 1.1 1.2h.9c.7 0 1.2-.4 1.2-1.2v-10.2c0-5.7 3.9-9.8 8.9-9.8 4.6 0 5.1 3.3 5.1 7v13c0 .8.4 1.2 1.2 1.2h.9c.7 0 1.1-.4 1.1-1.2v-13.8c0-5.8-2.1-9.2-7.9-9.2z" fill="#cbcfcf"/></svg>