<svg enable-background="new 0 0 272 90" viewBox="0 0 272 90" xmlns="http://www.w3.org/2000/svg"><path d="m140.4 21.6-8.9 6.9-.7 3.5h-9.2l2.7-14c.6-5.3 8.8-3.7 10-3.4l1.3-6.8c-14.7-5.5-18.9 10.2-18.9 10.2l-2.7 14-9.2 7.1h7.8l-8.6 44.9h7.6l8.6-44.8h9.2l-3.4 17.5c-2.1 12.8 10.8 11.4 14.9 10.6l1.3-6.7c-9.8 2.2-8.5-3.9-8.5-3.9l3.4-17.5h11.7l1.4-7.1h-11.7zm-60.3 10.6-1.4 7.6c18.6-8 15.5 6 15.5 6l-.4 2.1s-10.9-5.6-18.5.6c0 0-4.5 3-4.5 8.9s5.5 9.1 5.5 9.1 8.2 4.3 14.7-2.6l-.7 3.2h7.2l4.5-21.3c3.3-21-21.9-13.6-21.9-13.6zm11.9 25.4c-7.9 8.1-13 2.8-13 2.8-3.4-3.3.4-6.7.4-6.7 5.2-4.7 13.3.5 13.3.5zm-18.4-25.5c-5.9.1-11.2 3.3-11.2 3.3l.7-3.2h-7l-6.4 34.9h7.2l4.4-23c3.2-6.5 11.2-4.5 11.2-4.5zm-39.5-18.9c4.3 0 8.5 1.3 12.1 3.9.4.3.7.6 1 .9l5.5-4.3.2-.2c-.8-.8-1.7-1.6-2.7-2.4-4.7-3.4-10.1-5.1-15.7-5.1h-.1-.1c-9.7 0-19.7 4.9-26.5 13.9-4.9 6.4-7.3 13.8-7.3 20.9v.1.1c0 8.6 3.5 16.6 10.4 21.7 4.6 3.4 10.1 5.1 15.7 5.1h.1c6.8 0 13.9-2.5 19.9-7.1l-5.2-4c-4.1 2.6-8.7 4-13.2 4-4.3 0-8.5-1.3-12-3.9-9.6-7.2-10.7-21.9-2.4-32.9 5.1-7 12.8-10.7 20.3-10.7zm129.9 26c1.3-1.3 2.8-2.4 4.7-3.2 1.8-.8 3.8-1.2 6-1.2 1.9 0 3.7.3 5.2.9 1.6.6 3 1.3 4.4 2.2l1.4-2c-1.5-1-3.2-1.8-5.1-2.4-1.8-.6-3.8-.9-6-.9-2.5 0-4.9.5-7 1.4s-4 2.2-5.6 3.8-2.8 3.5-3.6 5.6c-.9 2.2-1.3 4.5-1.3 6.9 0 2.5.4 4.7 1.3 6.9.9 2.1 2.1 4 3.6 5.6s3.4 2.8 5.5 3.7 4.5 1.3 7 1.3c2.1 0 4.1-.3 6-.9 1.8-.6 3.5-1.4 5.1-2.4l-1.4-2c-1.4.9-2.8 1.6-4.4 2.2s-3.3.9-5.2.9c-2.2 0-4.2-.4-6-1.2s-3.4-1.9-4.7-3.3-2.3-3-3-4.9-1.1-3.9-1.1-6 .4-4.1 1.1-6c.9-2 1.9-3.6 3.1-5zm75.5-4c-1-1-2.1-1.6-3.3-2.1-1.2-.4-2.5-.7-3.9-.7-2.9 0-5.5.8-8 2.3s-4.5 3.3-6.2 5.4c-.6-2.6-1.8-4.5-3.5-5.8-1.8-1.3-3.8-1.9-6.1-1.9-1.4 0-2.8.2-4.1.6s-2.5.9-3.7 1.6c-1.1.7-2.2 1.4-3.2 2.2s-1.9 1.7-2.6 2.6v-6.4h-2.6v33.9h2.6v-24.6c1.9-2.1 3.9-3.8 6.1-5.2s4.5-2.1 7-2.1c5.4 0 8.1 3.1 8.1 9.3v22.8h2.6v-24.4c1.8-2.3 3.8-4.2 6-5.6 2.3-1.4 4.6-2.1 7.1-2.1 5.4 0 8.1 3.1 8.1 9.3v22.8h2.6v-23.1c0-2-.3-3.7-.8-5.2-.5-1.4-1.2-2.6-2.2-3.6zm30.7 18.5c-.9-1.1-2-2.1-3.3-2.8s-2.8-1.4-4.3-1.9-3-1.1-4.3-1.8-2.5-1.5-3.3-2.4c-.9-1-1.3-2.2-1.3-3.9 0-1.6.6-3 1.9-4.3s3.3-1.9 5.9-1.9c1.6 0 3.1.2 4.4.7s2.8 1.3 4.2 2.4l1.2-2c-1.5-1.1-3.1-1.9-4.7-2.5-1.6-.5-3.3-.8-5.1-.8-1.6 0-3.1.2-4.4.7s-2.3 1.1-3.2 2c-.9.8-1.6 1.7-2 2.8-.5 1-.7 2.1-.7 3.2 0 1.9.4 3.4 1.3 4.6.9 1.1 2 2.1 3.3 2.9s2.8 1.4 4.3 2c1.5.5 3 1.2 4.3 1.8 1.3.7 2.5 1.5 3.3 2.5.9 1 1.3 2.2 1.3 3.9 0 1.9-.7 3.5-2.2 4.8s-3.5 2-5.9 2c-2 0-3.8-.4-5.5-1.1s-3.4-1.6-4.9-2.7l-1.2 2c1.8 1.2 3.6 2.2 5.5 2.9s4 1.1 6.2 1.1c1.6 0 3.1-.3 4.4-.8s2.4-1.2 3.3-2 1.6-1.8 2.1-3c.5-1.1.7-2.3.7-3.6 0-2.1-.4-3.6-1.3-4.8z" fill="#cbcfcf"/></svg>